<?xml version="1.0" encoding="iso-8859-1"?>
<!-- Generator: Adobe Illustrator 19.0.0, SVG Export Plug-In . SVG Version: 6.00 Build 0)  -->
<svg version="1.1" id="Capa_1" xmlns="http://www.w3.org/2000/svg" xmlns:xlink="http://www.w3.org/1999/xlink" x="0px" y="0px"
	 viewBox="0 0 512 512" style="enable-background:new 0 0 512 512;" xml:space="preserve">
<g>
	<g>
		<path d="M256,211c-24.814,0-45,20.186-45,45c0,24.814,20.186,45,45,45c24.814,0,45-20.186,45-45C301,231.186,280.814,211,256,211z
			"/>
	</g>
</g>
<g>
	<g>
		<path d="M256,0C115.39,0,0,115.39,0,256s115.39,256,256,256s256-115.39,256-256S396.61,0,256,0z M421,271
			c0,33.091-26.909,60-60,60c-20.273,0-38.152-10.161-49.017-25.596C298.23,320.971,278.354,331,256,331c-41.353,0-75-33.647-75-75
			c0-41.353,33.647-75,75-75c16.948,0,32.426,5.865,45,15.383V196h30v60c0,5.136-0.529,10.151-1.518,15H331
			c0,16.538,13.462,30,30,30c16.538,0,30-13.462,30-30v-15c0-74.443-60.557-135-135-135s-135,60.557-135,135s60.557,135,135,135
			c30,0,58.374-9.609,82.061-27.803l18.281,23.789C327.353,409.237,292.665,421,256,421c-90.981,0-165-74.019-165-165
			S165.019,91,256,91s165,74.019,165,165V271z"/>
	</g>
</g>
<g>
</g>
<g>
</g>
<g>
</g>
<g>
</g>
<g>
</g>
<g>
</g>
<g>
</g>
<g>
</g>
<g>
</g>
<g>
</g>
<g>
</g>
<g>
</g>
<g>
</g>
<g>
</g>
<g>
</g>
</svg>
