<svg height="512" viewBox="0 0 64 64" width="512" xmlns="http://www.w3.org/2000/svg"><g id="Icons"><g><g><path d="m40 50v-8h-16v8c0 2.209-1.791 4-4 4h-6c-3.314 0-6 2.686-6 6h48c0-3.314-2.686-6-6-6h-6c-2.209 0-4-1.791-4-4z" fill="#f0c8a0"/></g><g><path d="m24 49.123c2.411 1.201 5.128 1.877 8 1.877s5.589-.676 8-1.877v-7.123h-16z" fill="#d2aa82"/></g><g><path d="m32 50c-9.925 0-18-8.075-18-18v-10c0-9.925 8.075-18 18-18s18 8.075 18 18v10c0 9.925-8.075 18-18 18z" fill="#d2d2d2"/></g><g><path d="m32 48c-8.837 0-16-7.163-16-16v-10c0-8.837 7.163-16 16-16 8.837 0 16 7.163 16 16v10c0 8.837-7.163 16-16 16z" fill="#f0c8a0"/></g><g><path d="m16 38h32v1h-32z" fill="#d2aa82"/></g><g><path d="m24 28.998c-.923 0-1.847-.43-2.707-1.291-.391-.391-.391-1.023 0-1.414s1.023-.391 1.414 0c.942.942 1.644.942 2.586 0 .391-.391 1.023-.391 1.414 0s.391 1.023 0 1.414c-.86.86-1.784 1.291-2.707 1.291z" fill="#00325a"/></g><g><path d="m40 28.998c-.923 0-1.847-.43-2.707-1.291-.391-.391-.391-1.023 0-1.414s1.023-.391 1.414 0c.942.942 1.644.942 2.586 0 .391-.391 1.023-.391 1.414 0s.391 1.023 0 1.414c-.86.86-1.784 1.291-2.707 1.291z" fill="#00325a"/></g><g><path d="m36 42c-.256 0-.512-.098-.707-.293-2.277-2.277-4.309-2.277-6.586 0-.391.391-1.023.391-1.414 0s-.391-1.023 0-1.414c3.043-3.043 6.371-3.043 9.414 0 .391.391.391 1.023 0 1.414-.195.195-.451.293-.707.293z" fill="#c80a50"/></g><g><path d="m32 4c-9.925 0-18 8.075-18 18h36c0-9.925-8.075-18-18-18z" fill="#f0f0f0"/></g><g><path d="m14 32c0 9.925 8.075 18 18 18s18-8.075 18-18zm20 12h-4c-3.314 0-6-2.686-6-6h16c0 3.314-2.686 6-6 6z" fill="#f0f0f0"/></g><g><g><path d="m48.972 38h-8.972c0 .341-.029.675-.083 1h8.667c.138-.328.268-.662.388-1z" fill="#d2d2d2"/></g><g><path d="m15.417 39h8.667c-.055-.325-.084-.659-.084-1h-8.972c.12.338.25.672.389 1z" fill="#d2d2d2"/></g></g><g><path d="m18.595 44c.31.346.632.679.968 1h24.875c.335-.321.658-.654.968-1z" fill="#d2d2d2"/></g><g><path d="m15.028 16h33.943c-.12-.338-.249-.672-.389-1h-33.165c-.139.328-.269.662-.389 1z" fill="#d2d2d2"/></g><g><path d="m19.562 9h24.875c-.364-.349-.743-.682-1.136-1h-22.603c-.392.318-.771.651-1.136 1z" fill="#d2d2d2"/></g><g><path d="m16 22h32v1h-32z" fill="#d2aa82"/></g><path d="m59 12h-2.382l3.276-6.553c.219-.439.088-.972-.31-1.258-.397-.289-.946-.244-1.292.104l-8 8c-.286.286-.372.716-.217 1.09.156.373.521.617.925.617h2.382l-3.276 6.553c-.219.439-.088.972.31 1.258.175.127.38.189.584.189.258 0 .514-.099.708-.293l8-8c.286-.286.372-.716.217-1.09-.156-.373-.521-.617-.925-.617z" fill="#c80a50"/></g></g></svg>